<?xml version="1.0" encoding="UTF-8"?>
<svg width="1260px" height="334px" viewBox="0 0 1260 334" version="1.1" xmlns="http://www.w3.org/2000/svg" xmlns:xlink="http://www.w3.org/1999/xlink">
    <!-- Generator: Sketch 49.1 (51147) - http://www.bohemiancoding.com/sketch -->
    <title>Group</title>
    <desc>Created with Sketch.</desc>
    <defs></defs>
    <g id="Page-1" stroke="none" stroke-width="1" fill="none" fill-rule="evenodd">
        <g id="Group">
            <circle id="shape" fill="#42B983" cx="167" cy="167" r="167"></circle>
            <rect id="shape" fill="#FFFFFF" x="79" y="110.371681" width="56" height="111.858407"></rect>
            <path d="M214.122682,166.402611 L214.145899,166.425828 L214.170929,166.400797 L253.768909,205.998777 L214.22099,245.546696 L174.64804,205.973747 L174.62301,205.998777 L135.02503,166.400797 L173.854692,127.571136 L173.806445,127.522889 L213.354364,87.9749697 L252.952343,127.572949 L214.122682,166.402611 Z" id="shape" fill="#FFFFFF"></path>
            <path d="M454.592073,208.280206 L438.102204,225.187018 L438.102204,278.953728 L401,278.953728 L401,45 L438.102204,45 L438.102204,179.949871 L449.706186,165.480077 L495.358692,114.150386 L539.94241,114.150386 L478.563455,182.84383 L546.507821,278.953728 L503.603626,278.953728 L454.592073,208.280206 Z M598.573054,114.150386 L599.641841,133.189589 C605.443861,126.183127 612.416359,120.750662 620.559545,116.892031 C628.702731,113.0334 637.761889,111.104113 647.737291,111.104113 C655.676897,111.104113 662.878419,112.195683 669.342073,114.378856 C675.805726,116.562029 681.327741,120.090593 685.908283,124.964653 C690.488825,129.838713 694.025968,136.185051 696.519819,144.003856 C699.013669,151.822661 700.260576,161.316782 700.260576,172.486504 L700.260576,278.953728 L663.158372,278.953728 L663.158372,172.181877 C663.158372,166.495473 662.522195,161.697642 661.249822,157.788239 C659.977449,153.878836 658.119813,150.705668 655.676857,148.268638 C653.233902,145.831607 650.2057,144.080018 646.592161,143.013817 C642.978623,141.947617 638.83075,141.414524 634.148418,141.414524 C626.514182,141.414524 619.872495,143.24227 614.22316,146.897815 C608.573825,150.55336 604.069693,155.478118 600.710629,161.672237 L600.710629,278.953728 L563.608425,278.953728 L563.608425,114.150386 L598.573054,114.150386 Z M731.102737,195.02892 C731.102737,183.046855 732.858585,171.953457 736.370334,161.748393 C739.882083,151.543329 744.920604,142.683842 751.486047,135.169666 C758.05149,127.655489 766.067318,121.766088 775.533772,117.501285 C785.000225,113.236483 795.73889,111.104113 807.750089,111.104113 C819.863078,111.104113 830.703531,113.236483 840.271774,117.501285 C849.840017,121.766088 857.906739,127.655489 864.472183,135.169666 C871.037626,142.683842 876.0507,151.543329 879.511554,161.748393 C882.972407,171.953457 884.702808,183.046855 884.702808,195.02892 L884.702808,198.227506 C884.702808,210.209571 882.972407,221.328355 879.511554,231.58419 C876.0507,241.840026 871.037626,250.699513 864.472183,258.162918 C857.906739,265.626323 849.865464,271.464953 840.348116,275.678985 C830.830768,279.893016 820.066656,282 808.055457,282 C795.942468,282 785.127462,279.893016 775.610114,275.678985 C766.092766,271.464953 758.05149,265.626323 751.486047,258.162918 C744.920604,250.699513 739.882083,241.840026 736.370334,231.58419 C732.858585,221.328355 731.102737,210.209571 731.102737,198.227506 L731.102737,195.02892 Z M768.204941,198.227506 C768.204941,205.64014 768.968354,212.646497 770.495201,219.246787 C772.022048,225.847077 774.414073,231.609551 777.671347,236.534383 C780.928622,241.459215 785.076495,245.343173 790.115091,248.186375 C795.153687,251.029577 801.133749,252.451157 808.055457,252.451157 C814.875375,252.451157 820.804543,251.029577 825.843139,248.186375 C830.881735,245.343173 835.004161,241.459215 838.21054,236.534383 C841.41692,231.609551 843.808945,225.847077 845.386687,219.246787 C846.964429,212.646497 847.753288,205.64014 847.753288,198.227506 L847.753288,195.02892 C847.753288,187.71783 846.964429,180.787629 845.386687,174.238111 C843.808945,167.688592 841.391473,161.951503 838.134198,157.026671 C834.876924,152.101839 830.729051,148.16711 825.690455,145.222365 C820.651859,142.27762 814.671797,140.80527 807.750089,140.80527 C800.828381,140.80527 794.899213,142.27762 789.962407,145.222365 C785.0256,148.16711 780.928622,152.101839 777.671347,157.026671 C774.414073,161.951503 772.022048,167.688592 770.495201,174.238111 C768.968354,180.787629 768.204941,187.71783 768.204941,195.02892 L768.204941,198.227506 Z M1002.57483,147.96401 C1000.13188,147.557839 997.663509,147.253214 995.169659,147.050129 C992.675808,146.847043 990.105654,146.745501 987.459118,146.745501 C978.501614,146.745501 971.223751,148.471705 965.625311,151.924165 C960.026871,155.376624 955.853551,160.14907 953.105226,166.241645 L953.105226,278.953728 L916.003022,278.953728 L916.003022,114.150386 L951.425702,114.150386 L952.341806,132.580334 C956.515189,125.878501 961.680944,120.623734 967.839229,116.815874 C973.997513,113.008014 981.249929,111.104113 989.596694,111.104113 C991.73428,111.104113 994.151752,111.332581 996.849182,111.789524 C999.546613,112.246468 1001.50604,112.728789 1002.72752,113.236504 L1002.57483,147.96401 Z M1060.90011,114.150386 L1061.96889,131.361825 C1067.46554,124.964621 1074.15813,119.989092 1082.04684,116.43509 C1089.93555,112.881088 1099.12194,111.104113 1109.60629,111.104113 C1119.68348,111.104113 1128.69175,113.109556 1136.63135,117.120501 C1144.57096,121.131447 1150.67826,127.55394 1154.95343,136.388175 C1160.45008,128.670913 1167.39713,122.527658 1175.79479,117.958226 C1184.19245,113.388795 1194.14226,111.104113 1205.64451,111.104113 C1214.19485,111.104113 1221.82897,112.246454 1228.5471,114.53117 C1235.26523,116.815885 1240.93993,120.420605 1245.57137,125.345437 C1250.2028,130.270269 1253.76539,136.591221 1256.25924,144.308483 C1258.75309,152.025746 1260,161.316784 1260,172.181877 L1260,278.953728 L1222.8978,278.953728 L1222.8978,172.029563 C1222.8978,165.936988 1222.21072,160.936074 1220.83656,157.026671 C1219.4624,153.117268 1217.47753,149.99487 1214.88189,147.659383 C1212.28625,145.323896 1209.1817,143.699233 1205.56817,142.785347 C1201.95463,141.871461 1197.85765,141.414524 1193.27711,141.414524 C1184.82855,141.414524 1177.93239,143.673821 1172.58843,148.192481 C1167.24446,152.711141 1163.50374,158.625927 1161.36616,165.937018 C1161.36616,166.444733 1161.3916,166.977825 1161.4425,167.536311 C1161.49339,168.094797 1161.51884,168.627889 1161.51884,169.135604 L1161.51884,278.953728 L1124.41664,278.953728 L1124.41664,172.486504 C1124.41664,166.698557 1123.72957,161.82457 1122.3554,157.864396 C1120.98124,153.904222 1118.99637,150.705668 1116.40073,148.268638 C1113.80509,145.831607 1110.6751,144.080018 1107.01066,143.013817 C1103.34623,141.947617 1099.22381,141.414524 1094.64326,141.414524 C1086.70366,141.414524 1080.16376,143.039187 1075.02337,146.28856 C1069.88299,149.537934 1065.8878,153.954985 1063.03768,159.539846 L1063.03768,278.953728 L1025.93548,278.953728 L1025.93548,114.150386 L1060.90011,114.150386 Z" id="knorm" fill="#202020" opacity="0.85"></path>
        </g>
    </g>
</svg>
